<svg width="872" height="162" viewBox="0 0 872 162" fill="none" xmlns="http://www.w3.org/2000/svg">
<path d="M104.238 29.2412C105.216 32.5617 106.052 35.1081 106.683 37.6952C107.07 39.2637 107.742 40.1397 109.311 40.5471C111.878 41.2193 114.363 42.1768 117.5 43.2157C114.363 44.2139 111.918 45.0898 109.413 45.7417C107.905 46.1288 107.09 46.8825 106.703 48.5122C106.092 51.14 105.237 53.6864 104.238 57.1087C103.22 53.7068 102.324 51.0789 101.672 48.3696C101.325 46.9232 100.612 46.2102 99.2883 45.8436C96.7012 45.1102 94.1752 44.2546 90.8955 43.2361C94.0734 42.1768 96.6197 41.2193 99.2069 40.5267C100.592 40.1601 101.264 39.4267 101.631 38.0415C102.364 35.3118 103.24 32.6228 104.238 29.2412Z" fill="#9F1127"/>
<path d="M71.6447 27.4292C72.6226 30.7497 73.4578 33.296 74.0893 35.8832C74.4763 37.4517 75.1486 38.3277 76.7171 38.7351C79.2839 39.4073 81.7691 40.3648 84.9063 41.4037C81.7691 42.4019 79.3246 43.2778 76.819 43.9297C75.3115 44.3167 74.4967 45.0705 74.1096 46.7001C73.4985 49.328 72.6429 51.8744 71.6447 55.2967C70.6262 51.8947 69.7299 49.2669 69.078 46.5575C68.7317 45.1112 68.0187 44.3982 66.6946 44.0315C64.1075 43.2982 61.5815 42.4426 58.3018 41.4241C61.4796 40.3648 64.026 39.4073 66.6131 38.7147C67.9983 38.348 68.6706 37.6147 69.0373 36.2295C69.7706 33.4997 70.6262 30.8108 71.6447 27.4292Z" fill="#9F1127"/>
<path d="M90.8956 35.8012C90.1826 33.377 89.5714 31.5232 89.1029 29.6084C88.8177 28.4676 88.3288 27.8361 87.188 27.5305C85.3139 27.0416 83.4805 26.3286 81.199 25.5749C83.4805 24.8416 85.2732 24.2101 87.1066 23.7212C88.2066 23.436 88.7973 22.886 89.0825 21.7044C89.5307 19.7896 90.1622 17.9154 90.8956 15.4302C91.6493 17.9154 92.1993 19.484 92.6882 21.4396C92.953 22.4989 93.5438 23.3749 94.5216 23.66C96.3957 24.1897 98.2698 24.8212 100.653 25.5546C98.331 26.3286 96.4772 27.0213 94.5827 27.5305C93.5642 27.7954 93.0752 28.325 92.8104 29.3436C92.2808 31.3807 91.6493 33.3363 90.8956 35.8012Z" fill="#9F1127"/>
<path d="M121.166 45.2734C121.431 46.1698 121.655 46.842 121.818 47.5346C121.92 47.9624 122.104 48.1865 122.531 48.2883C123.224 48.4717 123.876 48.7161 124.711 49.0013C123.876 49.2661 123.224 49.5106 122.552 49.6736C122.144 49.7754 121.941 49.9791 121.839 50.4069C121.676 51.0995 121.452 51.7921 121.187 52.7088C120.922 51.7921 120.678 51.0995 120.494 50.3662C120.392 49.9791 120.209 49.7958 119.863 49.6939C119.17 49.4902 118.498 49.2661 117.622 49.0013C118.478 48.7161 119.15 48.4717 119.842 48.268C120.209 48.1661 120.392 47.9828 120.494 47.5957C120.678 46.9031 120.902 46.1901 121.166 45.2734Z" fill="#9F1127"/>
<path d="M117.541 20.1152C118.05 21.8671 118.498 23.1913 118.824 24.5561C119.028 25.3709 119.374 25.8395 120.209 26.0432C121.554 26.3895 122.857 26.8988 124.507 27.4488C122.857 27.9784 121.574 28.4266 120.27 28.7729C119.476 28.9766 119.048 29.3637 118.844 30.2192C118.518 31.5841 118.07 32.9286 117.541 34.7212C117.011 32.9286 116.542 31.5434 116.196 30.1378C116.013 29.384 115.646 28.997 114.953 28.8136C113.609 28.4266 112.265 27.9784 110.553 27.4488C112.224 26.8988 113.507 26.4099 114.872 26.0432C115.605 25.8395 115.992 25.4524 116.196 24.7191C116.563 23.2931 117.011 21.8875 117.541 20.1152Z" fill="#9F1127"/>
<path d="M84.4379 51.6494C85.1712 54.1143 85.7824 56.0088 86.2509 57.944C86.5361 59.1052 87.025 59.7571 88.2065 60.0626C90.1214 60.5515 91.9751 61.2849 94.2974 62.059C91.9751 62.7923 90.1418 63.4442 88.288 63.9331C87.1676 64.2183 86.5565 64.7887 86.2713 65.9906C85.8231 67.9462 85.1712 69.8407 84.4379 72.3871C83.6841 69.8611 83.0119 67.9055 82.523 65.8887C82.2582 64.8091 81.7489 64.2794 80.7507 63.9942C78.8359 63.4442 76.9414 62.8127 74.5172 62.059C76.8802 61.2645 78.7747 60.5515 80.71 60.0423C81.7489 59.7571 82.2378 59.2274 82.523 58.1885C83.0527 56.1514 83.6841 54.1754 84.4379 51.6494Z" fill="#9F1127"/>
<path d="M61.3574 52.7295C61.8463 54.3795 62.2741 55.6629 62.5796 56.9463C62.763 57.7204 63.1093 58.1685 63.8834 58.3723C65.1667 58.6982 66.4094 59.1871 67.9779 59.7167C66.4094 60.2056 65.1871 60.6538 63.9445 60.9797C63.1908 61.1835 62.7833 61.5501 62.6 62.365C62.2944 63.6687 61.8666 64.9521 61.3574 66.6429C60.8481 64.9317 60.3999 63.628 60.074 62.2835C59.8907 61.5705 59.5444 61.2038 58.8925 61.0205C57.6091 60.6538 56.3461 60.226 54.7164 59.7167C56.3054 59.1871 57.5684 58.7186 58.8721 58.3723C59.5647 58.1889 59.8907 57.8222 60.074 57.1296C60.4203 55.7444 60.8481 54.4203 61.3574 52.7295Z" fill="#9F1127"/>
<path d="M108.72 78.8659L108.7 76.4621C108.7 74.7713 108.272 73.488 107.437 72.6935C106.744 72.0212 105.807 71.7157 104.666 71.7564C103.26 71.7972 100.897 72.4694 100.897 76.4214C100.897 77.3788 100.897 78.3362 100.877 79.2937C100.857 81.5956 100.836 83.9586 100.918 86.3013C100.938 87.055 100.877 87.5032 100.694 87.6661C100.531 87.8291 100.123 87.9106 99.5122 87.9106C99.5122 87.9106 99.5122 87.9106 99.4918 87.9106C71.3188 87.8495 41.8216 87.8495 9.28917 87.9106C8.53544 87.9106 8.10765 87.8291 7.90394 87.6254C7.70023 87.4217 7.59838 86.9328 7.59838 86.1587C7.65949 68.5174 7.65949 50.7743 7.59838 33.4386C7.59838 32.746 7.67986 32.2978 7.8632 32.1145C8.02616 31.9515 8.43359 31.8701 9.10583 31.8904C13.2208 31.9515 17.4172 31.9312 21.471 31.9312C23.0396 31.9312 24.6081 31.9312 26.1971 31.9312H34.5899C41.8216 31.9312 49.0533 31.9312 56.285 31.9108C58.2202 31.9108 59.8092 31.1978 60.624 29.9552C61.2963 28.9163 61.3778 27.6533 60.8277 26.3699C59.7481 23.8643 57.4054 23.8643 56.0202 23.8643C46.2421 23.8846 36.464 23.8846 26.6656 23.8643H8.88175C2.75008 23.8643 0 26.6755 0 32.9701C0 50.9169 0 68.8637 0 86.8309C0 93.0645 2.6686 95.8553 8.63729 95.8553C19.5358 95.8553 30.4342 95.8553 41.3327 95.8553H54.4109H67.2853C71.5836 95.8553 75.8615 95.8553 80.1598 95.8553C87.0248 95.8553 93.8695 95.8553 100.734 95.8349C105.603 95.8349 108.577 92.82 108.7 87.7884C108.761 84.7938 108.74 81.7789 108.72 78.8659Z" fill="#9F1127"/>
<path d="M203.241 93.5328C203.241 77.236 203.241 61.0207 203.241 44.8258C203.139 44.8054 203.058 44.7851 202.956 44.7647C202.182 46.3333 201.388 47.9018 200.634 49.4704C196.539 57.904 192.445 66.3172 188.411 74.7712C187.922 75.8101 187.332 76.1767 186.17 76.1564C183.156 76.0749 180.141 76.0953 177.105 76.1564C176.27 76.1767 175.883 75.9119 175.516 75.1582C170.892 65.6246 166.207 56.091 161.542 46.5777C161.338 46.1499 161.094 45.7221 160.625 45.3351C160.625 61.4078 160.625 77.4805 160.625 93.6143C155.777 93.6143 151.071 93.6143 146.304 93.6143C146.304 70.4932 146.304 47.4129 146.304 24.2308C146.753 24.2104 147.14 24.1696 147.547 24.1696C153.251 24.1696 158.975 24.19 164.679 24.1493C165.535 24.1493 165.983 24.3937 166.39 25.1678C171.3 34.6607 176.229 44.1536 181.18 53.6261C181.343 53.952 181.526 54.2576 181.831 54.7668C182.768 52.9742 183.624 51.3649 184.439 49.7149C188.595 41.5461 192.771 33.3977 196.886 25.2086C197.273 24.4548 197.68 24.1289 198.576 24.1289C204.443 24.1696 210.33 24.1696 216.197 24.1289C217.094 24.1289 217.42 24.353 217.42 25.3104C217.399 47.7185 217.399 70.1062 217.399 92.5143C217.399 93.1865 217.42 93.7162 216.462 93.6958C212.286 93.655 208.11 93.6754 203.934 93.6754C203.771 93.655 203.628 93.6143 203.241 93.5328Z" fill="#9F1127"/>
<path d="M371.118 41.2206C366.698 43.4818 362.338 45.7226 357.877 48.0041C354.414 42.3614 349.484 38.9594 343.006 38.002C338.362 37.3094 333.941 38.1446 329.826 40.4261C321.434 45.0911 317.278 55.0932 319.824 64.4231C322.391 73.8549 330.906 80.1495 340.684 79.8847C348.445 79.681 356.818 74.6494 357.959 69.414C354.964 69.414 352.01 69.414 349.036 69.414C346.062 69.414 343.088 69.414 340.032 69.414C340.032 65.1157 340.032 60.9193 340.032 56.621C351.705 56.621 363.337 56.621 375.172 56.621C375.05 58.6174 374.989 60.4915 374.826 62.3657C374.459 66.3991 374.113 70.514 372.3 74.1808C366.902 85.0182 358.387 92.0054 346.347 94.2259C326.363 97.8926 308.478 84.3459 304.974 65.5639C301.063 44.6022 315.689 25.9627 335.062 23.2941C349.179 21.3385 363.5 28.2239 370.67 40.4872C370.833 40.6909 370.935 40.8946 371.118 41.2206Z" fill="#9F1127"/>
<path d="M302.713 93.6754C297.905 93.6754 293.322 93.6957 288.738 93.6346C288.412 93.6346 287.964 93.105 287.781 92.7383C285.784 88.2974 283.808 83.8362 281.894 79.3749C281.547 78.5601 281.119 78.2953 280.243 78.2953C269.406 78.3156 258.569 78.3156 247.711 78.2953C246.855 78.2953 246.407 78.5397 246.02 79.3546C243.963 83.8158 241.865 88.2567 239.766 92.6976C239.481 93.2883 239.237 93.7161 238.442 93.7161C234.388 93.6754 230.335 93.6957 226.281 93.6957C226.118 93.6957 225.955 93.655 225.629 93.5939C225.812 93.1253 225.955 92.7179 226.138 92.3309C236.181 70.0247 246.244 47.6981 256.267 25.3918C256.634 24.5974 257.041 24.3122 257.917 24.3326C262.256 24.3733 266.615 24.3733 270.954 24.3326C271.81 24.3326 272.177 24.6177 272.503 25.3715C282.423 47.7795 292.364 70.1876 302.305 92.5957C302.468 92.8402 302.55 93.1457 302.713 93.6754ZM275.884 64.0967C272.136 55.0927 268.469 46.3128 264.66 37.1866C260.708 46.3536 256.919 55.1335 253.069 64.0967C260.748 64.0967 268.204 64.0967 275.884 64.0967Z" fill="#9F1127"/>
<path d="M460.914 68.5171C465.212 70.7579 469.429 72.9376 473.645 75.1173C468.756 85.4453 456.045 95.4271 439.239 93.6345C422.148 91.8011 409.803 78.1933 408.214 62.3039C406.401 44.2756 418.134 28.9974 433.637 24.6991C449.689 20.2378 465.701 27.714 473.218 41.4237C471.181 42.5033 469.164 43.583 467.127 44.6423C465.212 45.6201 463.277 46.5571 461.382 47.5553C460.689 47.922 460.302 47.922 459.793 47.1683C455.087 40.0181 446.776 36.6569 438.567 38.4699C430.52 40.2625 424.103 47.0664 422.799 55.2352C420.946 66.7855 428.748 77.6433 440.257 79.0692C448.834 80.1285 455.597 76.8284 460.343 69.5356C460.506 69.23 460.689 68.9041 460.914 68.5171Z" fill="#9F1127"/>
<path d="M785.79 67.4994C785.79 76.2996 785.79 84.9369 785.79 93.6557C783.427 93.6557 781.125 93.6557 778.742 93.6557C778.742 70.0457 778.742 46.4358 778.742 22.6832C779.149 22.6629 779.597 22.6221 780.025 22.6221C789.986 22.6221 799.968 22.5814 809.93 22.6221C815.409 22.6425 820.645 23.7629 825.065 27.226C831.991 32.6446 834.66 39.9782 833.54 48.4933C832.134 59.188 824.821 65.9308 814.065 66.9901C813.617 67.0308 813.169 67.1123 812.415 67.2142C820.604 76.0959 828.63 84.7943 836.88 93.7576C834.619 93.7576 832.603 93.5946 830.606 93.7983C828.345 94.0224 826.838 93.2279 825.33 91.5371C818.404 83.7554 811.315 76.1367 804.307 68.4364C803.696 67.7642 803.105 67.479 802.189 67.4994C797.177 67.5401 792.187 67.5197 787.175 67.5197C786.768 67.4994 786.36 67.4994 785.79 67.4994ZM785.831 60.7362C786.401 60.7362 786.849 60.7362 787.298 60.7362C794.407 60.7362 801.516 60.7566 808.626 60.7362C810.032 60.7362 811.437 60.6751 812.822 60.5121C816.224 60.1047 819.341 59.0251 821.867 56.5805C826.349 52.2415 827.591 43.9302 824.658 37.9003C821.684 31.8298 816.489 29.4056 810.011 29.3445C802.352 29.2631 794.713 29.3242 787.053 29.3242C786.646 29.3242 786.259 29.3242 785.81 29.3242C785.831 39.8356 785.831 50.2044 785.831 60.7362Z" fill="#4B4B4B"/>
<path d="M497.276 22.6218C500.189 22.6218 502.959 22.6015 505.73 22.6218C512.309 22.683 518.889 22.5607 525.449 22.8663C541.786 23.5997 554.701 35.4759 557.146 51.6709C558.409 60.1656 557.472 68.3139 553.459 75.9734C548.183 85.996 539.647 91.4961 528.627 93.248C526.101 93.6554 523.534 93.7369 520.967 93.7573C513.572 93.8184 506.157 93.7777 498.763 93.7777C498.315 93.7777 497.866 93.7777 497.316 93.7777C497.276 70.0455 497.276 46.3948 497.276 22.6218ZM504.304 86.8515C507.441 86.8515 510.456 86.8923 513.471 86.8515C517.81 86.7904 522.169 86.933 526.488 86.5052C532.945 85.8534 538.608 83.2051 543.009 78.3365C549.385 71.2881 551.503 62.8953 550.24 53.6265C548.305 39.4075 537.936 30.0165 523.636 29.548C517.402 29.3443 511.148 29.4869 504.894 29.4869C504.711 29.4869 504.507 29.5684 504.324 29.6091C504.304 48.6763 504.304 67.6824 504.304 86.8515Z" fill="#4B4B4B"/>
<path d="M767.701 56.4174C767.497 66.6436 765.338 74.6698 760.102 81.6774C754.643 88.9702 747.289 93.1055 738.367 94.4704C731.42 95.5297 724.575 95.1223 717.955 92.637C708.258 88.9906 701.801 82.0441 698.358 72.3883C694.263 60.8379 694.813 49.4302 700.66 38.5928C706.201 28.3462 715.225 23.1312 726.653 21.8479C733.885 21.033 740.954 21.7256 747.656 24.7202C757.8 29.2833 763.81 37.3094 766.397 47.9431C767.191 51.2228 767.436 54.6248 767.701 56.4174ZM702.799 59.1064C702.982 60.4305 703.125 63.038 703.695 65.564C705.61 74.0587 709.969 80.883 717.833 85.059C723.414 88.0128 729.424 88.7461 735.637 88.0535C743.357 87.198 749.856 83.959 754.48 77.6236C760.754 69.027 762.139 59.4119 759.552 49.2468C757.434 40.8336 752.626 34.4168 744.559 30.7907C738.652 28.1425 732.439 27.7351 726.103 28.7129C720.073 29.6296 714.797 32.0945 710.621 36.5965C705.04 42.5651 702.941 49.8376 702.799 59.1064Z" fill="#4B4B4B"/>
<path d="M568.105 93.6958C568.105 69.984 568.105 46.3741 568.105 22.6826C584.626 22.6826 601.066 22.6826 617.607 22.6826C617.607 24.9234 617.607 27.1235 617.607 29.4662C603.429 29.4662 589.291 29.4662 575.093 29.4662C575.093 37.9201 575.093 46.2315 575.093 54.6854C588.619 54.6854 602.084 54.6854 615.651 54.6854C615.651 56.9059 615.651 59.0244 615.651 61.2449C602.166 61.2449 588.68 61.2449 575.113 61.2449C575.113 69.7803 575.113 78.2343 575.113 86.8512C589.638 86.8512 604.203 86.8512 618.85 86.8512C618.85 89.2346 618.85 91.4347 618.85 93.7162C601.942 93.6958 585.074 93.6958 568.105 93.6958Z" fill="#4B4B4B"/>
<path d="M688.457 33.1944C686.787 34.6408 685.178 36.026 683.589 37.4112C682.04 36.1482 680.614 34.8445 679.046 33.7241C668.229 26.0238 651.565 26.6757 641.848 35.15C636.145 40.1206 633.293 46.5985 632.457 53.9728C631.704 60.5323 632.457 66.9491 635.432 72.9178C639.343 80.7403 645.923 85.2219 654.316 87.0145C665.296 89.3776 675.053 86.9127 683.263 79.0495C683.344 78.968 683.466 78.9069 683.69 78.7643C685.239 80.231 686.807 81.7181 688.437 83.2663C685.361 86.5053 681.939 89.1739 677.905 90.9054C664.297 96.7722 651.097 96.0389 638.834 87.4831C631.622 82.4514 627.752 75.0364 626.102 66.501C624.391 57.5785 625.124 48.8597 629.259 40.6706C634.658 29.9758 643.56 24.0886 655.314 22.3163C663.136 21.1348 670.714 22.0108 677.926 25.4738C681.857 27.3887 685.341 29.9351 688.457 33.1944Z" fill="#4B4B4B"/>
<path d="M383.26 23.4155C388.271 23.4155 393.201 23.4155 398.294 23.4155C398.294 23.9655 398.294 24.4544 398.294 24.923C398.294 47.3107 398.294 69.6984 398.314 92.1065C398.314 93.3287 398.049 93.7361 396.745 93.6954C392.61 93.5935 388.475 93.6343 384.339 93.675C383.402 93.6954 383.158 93.3898 383.158 92.4731C383.178 69.8002 383.178 47.107 383.178 24.4341C383.178 24.1285 383.239 23.8026 383.26 23.4155Z" fill="#9F1127"/>
<path d="M590.82 13.7197C590.066 13.516 589.271 13.4141 588.558 13.0882C586.338 12.09 585.849 9.727 587.642 8.07695C588.579 7.201 589.76 6.46764 590.962 5.99911C595.953 4.0435 600.964 2.12863 606.016 0.356351C607.137 -0.0306975 608.583 -0.0510684 609.744 0.274867C611.822 0.865625 612.454 3.16755 611.068 4.85834C610.396 5.69355 609.439 6.40653 608.44 6.83432C603.409 8.99364 598.316 11.0511 593.244 13.1086C592.49 13.4345 591.655 13.516 590.82 13.7197Z" fill="#4B4B4B"/>
<path d="M346.857 151.127V159.989C346.857 162.087 343.394 162.087 343.394 160.03V133.812C343.394 132.855 344.107 132.223 345.146 132.223H356.37C364.58 132.223 368.735 136.705 368.735 142.042C368.735 146.666 366.128 149.987 360.302 150.944L367.982 158.95C369.774 160.681 367.167 162.698 365.619 161.15L356.044 151.148H346.857V151.127ZM346.857 148.255H356.431C362.644 148.255 365.333 145.464 365.252 142.042C365.211 138.294 361.931 135.279 356.431 135.279H346.857V148.255Z" fill="#9F1127"/>
<path d="M390.838 138.151C396.195 139.577 399.516 143.773 399.597 149.62V149.579C399.699 150.577 399.21 151.677 397.275 151.677H378.554C379.165 155.426 382.485 158.542 387.232 158.542C389.412 158.542 391.693 157.992 393.526 156.627C395.177 155.161 397.641 157.035 395.808 158.868C393.628 160.844 390.45 161.659 387.374 161.618C383.667 161.618 379.98 160.253 377.759 157.544C372.646 151.046 374.867 140.534 383.687 138.171C385.908 137.54 388.474 137.581 390.797 138.171H390.838V138.151ZM378.432 148.886H396.297C395.971 144.996 393.506 142.021 389.799 141.125H389.839C388.271 140.718 386.336 140.718 384.726 141.166C380.937 142.123 378.717 145.199 378.432 148.886Z" fill="#9F1127"/>
<path d="M418.664 137.784C421.842 137.784 424.918 139.067 426.344 141.492V132.406C426.344 130.308 429.807 130.308 429.807 132.406V160.009C429.807 161.007 429.135 161.598 428.056 161.598C426.976 161.598 426.446 161.007 426.446 160.009V157.87C424.837 160.701 421.516 161.883 418.664 161.883C417.198 161.883 415.588 161.618 414.122 161.007L414.162 161.048C408.988 158.99 406.381 154.468 406.523 149.171C406.707 142.673 411.555 137.784 418.664 137.784ZM426.344 151.596V147.99C426.344 143.977 423.126 141.125 418.807 140.962C415.446 140.962 412.085 142.694 410.699 145.851C410.312 146.808 410.027 148.051 409.986 149.233C409.946 152.207 410.944 154.936 413.49 156.994C414.855 158.053 416.566 158.583 418.379 158.725C422.698 158.725 426.344 156.077 426.344 151.596Z" fill="#9F1127"/>
<path d="M453.886 138.151C459.244 139.577 462.564 143.773 462.646 149.62V149.579C462.747 150.577 462.259 151.677 460.323 151.677H441.602C442.214 155.426 445.534 158.542 450.28 158.542C452.46 158.542 454.742 157.992 456.575 156.627C458.225 155.161 460.69 157.035 458.857 158.868C456.677 160.844 453.499 161.659 450.423 161.618C446.716 161.618 443.028 160.253 440.808 157.544C435.695 151.046 437.915 140.534 446.736 138.171C448.956 137.54 451.523 137.581 453.845 138.171H453.886V138.151ZM441.46 148.886H459.325C458.999 144.996 456.534 142.021 452.827 141.125H452.868C451.299 140.718 449.364 140.718 447.754 141.166C443.965 142.123 441.745 145.199 441.46 148.886Z" fill="#9F1127"/>
<path d="M474.644 141.39V160.029C474.644 162.046 471.181 162.046 471.181 160.029V141.39H468.614C466.76 141.39 466.821 138.599 468.655 138.599H471.16V137.601C471.16 131.754 478.372 129.188 482.772 132.488C484.422 133.853 482.242 136.012 480.836 134.81C478.901 133.078 474.623 134.117 474.623 137.642V138.599H479.166C480.877 138.599 480.877 141.39 479.166 141.39H474.644Z" fill="#9F1127"/>
<path d="M491.939 134.627C491.939 136.684 488.374 136.725 488.374 134.627V132.569C488.374 130.471 491.939 130.471 491.939 132.569V134.627ZM488.435 139.577C488.435 137.621 491.898 137.56 491.898 139.536V160.152C491.898 162.168 488.435 162.107 488.435 160.152V139.577Z" fill="#9F1127"/>
<path d="M520.377 147.888C520.377 143.691 516.873 140.758 513.023 140.758C508.419 140.758 504.121 144.425 504.121 149.395V159.988C504.121 160.986 503.509 161.577 502.409 161.577C501.309 161.577 500.617 160.986 500.617 159.988V139.515C500.617 137.417 504.039 137.376 504.039 139.556V142.388C505.75 139.047 509.397 137.641 513.084 137.641C518.584 137.641 523.84 141.288 523.84 147.888V160.008C523.84 161.007 523.228 161.597 522.128 161.597C521.09 161.597 520.377 161.007 520.377 160.008V147.888Z" fill="#9F1127"/>
<path d="M547.918 138.151C553.276 139.577 556.596 143.773 556.678 149.62V149.579C556.78 150.577 556.291 151.677 554.356 151.677H535.635C536.246 155.426 539.566 158.542 544.313 158.542C546.492 158.542 548.774 157.992 550.607 156.627C552.257 155.161 554.722 157.035 552.889 158.868C550.709 160.844 547.531 161.659 544.455 161.618C540.748 161.618 537.061 160.253 534.84 157.544C529.727 151.046 531.947 140.534 540.768 138.171C542.989 137.54 545.555 137.581 547.878 138.171H547.918V138.151ZM535.492 148.886H553.357C553.031 144.996 550.567 142.021 546.859 141.125H546.9C545.331 140.718 543.396 140.718 541.787 141.166C537.998 142.123 535.777 145.199 535.492 148.886Z" fill="#9F1127"/>
<path d="M589.373 149.579L577.375 134.28C575.949 132.447 579.086 130.756 580.369 132.589L591.085 146.706L601.942 132.549C603.124 130.817 606.057 132.284 604.794 134.199L592.898 149.599V159.846C592.898 160.986 591.94 161.536 591.146 161.536C590.188 161.536 589.394 160.986 589.394 159.846V149.579H589.373Z" fill="#9F1127"/>
<path d="M610.05 157.625C607.911 155.201 607.015 152.268 607.157 148.846C607.626 143.773 610.722 139.516 615.917 138.11C617.058 137.784 618.341 137.703 619.522 137.703C620.663 137.703 621.804 137.784 623.026 138.11C628.2 139.536 631.419 143.732 631.847 148.846C632.03 152.268 631.093 155.201 628.995 157.625C626.673 160.314 623.25 161.74 619.522 161.74C615.733 161.74 612.372 160.314 610.05 157.625ZM619.482 140.799C618.585 140.799 617.689 140.942 616.976 141.125C613.004 142.123 610.681 145.688 610.681 149.803C610.681 151.86 611.354 153.999 612.759 155.609C614.409 157.524 616.935 158.624 619.543 158.624C622.11 158.624 624.717 157.442 626.367 155.609C627.691 154.061 628.445 151.86 628.445 149.905C628.445 145.749 626.123 142.144 622.089 141.125C621.315 140.942 620.378 140.799 619.482 140.799Z" fill="#9F1127"/>
<path d="M643.071 151.535C643.071 155.731 646.575 158.665 650.425 158.665C655.029 158.665 659.327 155.018 659.327 150.027V139.434C659.327 138.436 659.938 137.825 661.038 137.825C662.138 137.825 662.831 138.416 662.831 139.434V159.907C662.831 162.006 659.409 162.046 659.409 159.867V156.994C657.697 160.335 654.051 161.781 650.364 161.781C644.864 161.781 639.608 158.135 639.608 151.535V139.434C639.608 138.436 640.219 137.825 641.319 137.825C642.358 137.825 643.071 138.416 643.071 139.434V151.535Z" fill="#9F1127"/>
<path d="M675.583 141.859C677.091 138.803 679.943 137.968 682.652 137.968C683.752 137.968 684.445 138.518 684.445 139.557C684.445 140.555 683.732 141.105 682.652 141.105C677.763 141.105 675.685 144.853 675.685 149.457V159.785C675.685 160.743 674.87 161.395 673.974 161.395C672.935 161.395 672.222 160.763 672.222 159.785V139.537C672.222 137.52 675.583 137.337 675.583 139.537V141.859Z" fill="#9F1127"/>
<path d="M706.588 161.313C705.406 161.313 704.408 160.396 704.408 159.358V134.179C704.408 133.12 705.406 132.264 706.588 132.264H716.916C726.347 132.264 731.033 139.537 731.033 146.789C731.033 154.061 726.347 161.313 716.916 161.313H706.588ZM707.81 158.359H716.916C724.025 158.359 727.59 152.554 727.59 146.789C727.59 141.024 724.046 135.177 716.916 135.177H707.81V158.359Z" fill="#9F1127"/>
<path d="M753.604 138.151C758.962 139.577 762.282 143.773 762.364 149.62V149.579C762.465 150.577 761.977 151.677 760.041 151.677H741.32C741.932 155.426 745.252 158.542 749.999 158.542C752.178 158.542 754.46 157.992 756.293 156.627C757.943 155.161 760.408 157.035 758.575 158.868C756.395 160.844 753.217 161.659 750.141 161.618C746.434 161.618 742.746 160.253 740.526 157.544C735.413 151.046 737.633 140.534 746.454 138.171C748.674 137.54 751.241 137.581 753.563 138.171H753.604V138.151ZM741.178 148.886H759.043C758.717 144.996 756.252 142.021 752.545 141.125H752.586C751.017 140.718 749.082 140.718 747.472 141.166C743.704 142.123 741.463 145.199 741.178 148.886Z" fill="#9F1127"/>
<path d="M781.329 140.474C776.155 140.474 772.651 144.548 772.651 149.743C772.651 151.8 773.262 154.122 774.688 155.772C776.338 157.728 778.946 158.787 781.512 158.787C784.018 158.787 786.768 157.972 788.438 155.772C789.62 154.224 792.472 155.996 790.863 157.789C788.54 160.539 784.975 161.863 781.472 161.863C777.927 161.863 774.321 160.437 771.938 157.789C769.942 155.406 768.943 152.167 769.147 148.826C769.534 142.063 774.505 137.438 781.716 137.438C785.138 137.438 787.868 138.539 790.435 141.329C791.8 142.837 789.253 144.752 787.929 143.244C786.116 141.268 783.692 140.474 781.329 140.474Z" fill="#9F1127"/>
<path d="M799.805 157.625C797.666 155.201 796.77 152.268 796.913 148.846C797.381 143.773 800.477 139.516 805.672 138.11C806.813 137.784 808.096 137.703 809.278 137.703C810.418 137.703 811.559 137.784 812.782 138.11C817.956 139.536 821.174 143.732 821.602 148.846C821.786 152.268 820.848 155.201 818.75 157.625C816.428 160.314 813.006 161.74 809.278 161.74C805.509 161.74 802.127 160.314 799.805 157.625ZM809.237 140.799C808.341 140.799 807.444 140.942 806.731 141.125C802.759 142.123 800.437 145.688 800.437 149.803C800.437 151.86 801.109 153.999 802.515 155.609C804.165 157.524 806.691 158.624 809.298 158.624C811.865 158.624 814.472 157.442 816.122 155.609C817.446 154.061 818.2 151.86 818.2 149.905C818.2 145.749 815.878 142.144 811.844 141.125C811.091 140.942 810.154 140.799 809.237 140.799Z" fill="#9F1127"/>
<path d="M832.705 141.859C834.212 138.803 837.064 137.968 839.773 137.968C840.873 137.968 841.566 138.518 841.566 139.557C841.566 140.555 840.853 141.105 839.773 141.105C834.884 141.105 832.807 144.853 832.807 149.457V159.785C832.807 160.743 831.992 161.395 831.095 161.395C830.057 161.395 829.344 160.763 829.344 159.785V139.537C829.344 137.52 832.705 137.337 832.705 139.537V141.859Z" fill="#9F1127"/>
<path d="M854.583 0C844.968 0 837.166 7.82245 837.166 17.4172C837.166 27.0323 844.988 34.8344 854.583 34.8344C864.177 34.8344 872 27.0119 872 17.4172C872 7.80208 864.198 0 854.583 0ZM854.583 32.0028C846.536 32.0028 839.977 25.4637 839.977 17.3968C839.977 9.35028 846.516 2.79082 854.583 2.79082C862.65 2.79082 869.189 9.32991 869.189 17.3968C869.189 25.4637 862.629 32.0028 854.583 32.0028Z" fill="#4B4B4B"/>
<path d="M857.109 19.5762C859.635 19.0058 861.02 17.3558 861.02 14.9113C861.02 11.7334 858.555 9.69629 854.726 9.69629H849.225C848.594 9.69629 848.146 10.1241 848.146 10.7352V24.0578C848.146 25.056 849.368 25.3005 849.938 24.8116C850.162 24.6282 850.285 24.343 850.285 24.0375V19.7596H854.461L859.085 24.7708C859.309 24.9949 859.594 25.1171 859.879 25.1171C859.961 25.1171 860.063 25.0967 860.144 25.0764C860.511 24.9745 860.796 24.7097 860.898 24.3634C860.959 24.1597 860.979 23.7523 860.572 23.3448L857.109 19.5762ZM858.861 14.9113C858.881 15.6242 858.637 16.2761 858.168 16.7446C857.476 17.4576 856.294 17.8243 854.766 17.8243H850.305V11.6926H854.766C857.19 11.6926 858.84 12.9964 858.861 14.9113Z" fill="#4B4B4B"/>
</svg>
